PathFileType	4	(X/Y/Z)	C:/Users/opensim2020/Desktop/walking_exp_matlab/subject02_walking08_straight_02.trc																																																																																																																									
DataRate	CameraRate	NumFrames	NumMarkers	Units	OrigDataRate	OrigDataStartFrame	OrigNumFrames																																																																																																																					
100	100	8	41	mm	100	1695	259																																																																																																																					
Frame#	Time	LFHD			RFHD			LBHD			RBHD			C7			T10			CLAV			STRN			RBAK			LSHO			LUPA			LELB			LFRM			LWRA			LWRB			LFIN			RSHO			RUPA			RELB			RFRM			RWRA			RWRB			RFIN			LASI			RASI			LPSI			RPSI			LTHI			LKNE			LTIB			LANK			LHEE			LTOE			RTHI			RKNE			RTIB			RANK			RHEE			RTOE			*39			*40		
		X1	Y1	Z1	X2	Y2	Z2	X3	Y3	Z3	X4	Y4	Z4	X5	Y5	Z5	X6	Y6	Z6	X7	Y7	Z7	X8	Y8	Z8	X9	Y9	Z9	X10	Y10	Z10	X11	Y11	Z11	X12	Y12	Z12	X13	Y13	Z13	X14	Y14	Z14	X15	Y15	Z15	X16	Y16	Z16	X17	Y17	Z17	X18	Y18	Z18	X19	Y19	Z19	X20	Y20	Z20	X21	Y21	Z21	X22	Y22	Z22	X23	Y23	Z23	X24	Y24	Z24	X25	Y25	Z25	X26	Y26	Z26	X27	Y27	Z27	X28	Y28	Z28	X29	Y29	Z29	X30	Y30	Z30	X31	Y31	Z31	X32	Y32	Z32	X33	Y33	Z33	X34	Y34	Z34	X35	Y35	Z35	X36	Y36	Z36	X37	Y37	Z37	X38	Y38	Z38	X39	Y39	Z39	X40	Y40	Z40	X41	Y41	Z41
																																																																																																																												
227	2.26	875.48901	1725.55383	-1481.84412	846.22119	1686.82397	-1345.85303	747.69812	1659.09485	-1526.7229	708.03345	1620.32214	-1393.21594	678.59137	1505.39624	-1465.98901	640.51709	1224.10205	-1449.86365	819.55347	1441.94238	-1477.82068	880.8764	1273.995	-1472.8999	630.52148	1325.25427	-1400.40466	751.20966	1483.79187	-1647.59546	749.27667	1280.11963	-1727.13904	753.45917	1138.55981	-1735.87244	781.56085	1008.75421	-1744.82361	858.6897	895.39081	-1712.99304	810.51648	889.21088	-1742.77698	840.21362	829.8194	-1746.69751	757.49646	1469.83167	-1279.88257	726.35815	1280.95898	-1196.99951	732.95776	1137.56677	-1176.28992	749.76398	1022.30499	-1144.69324	790.9516	891.07855	-1145.81995	739.94	894.54047	-1121.4198	768.29034	827.36707	-1110.60925	868.27606	961.76196	-1594.40894	908.297	973.52332	-1345.5614	671.06775	1008.8559	-1491.01331	682.23792	1013.87024	-1374.80554	744.88074	659.10242	-1644.30591	686.75159	475.78336	-1625.82629	537.30878	357.16949	-1610.82898	413.37894	170.82732	-1580.40759	383.61829	172.28522	-1521.87561	490.37305	32.37553	-1590.12927	899.71655	671.69287	-1264.68665	930.3736	464.62201	-1310.84912	907.31396	276.71732	-1304.97864	901.17871	85.01164	-1341.61365	869.68823	32.6384	-1398.85254	1053.71924	35.11744	-1326.21875	758.81219	1782.901	-1404.24585	-2845.80933	1034.14905	3357.27441
228	2.27	883.27008	1727.1759	-1480.32483	853.72375	1688.30835	-1344.29053	755.50659	1660.46912	-1525.31799	715.69989	1621.72485	-1391.90991	686.64001	1506.55664	-1464.26978	649.28467	1225.14417	-1447.28748	827.78088	1443.57129	-1476.47485	889.57263	1275.76855	-1471.37781	639.93982	1325.95752	-1397.80322	758.85132	1485.14453	-1646.01013	756.55261	1281.53613	-1725.3999	759.60718	1139.73767	-1733.24219	787.00031	1009.75818	-1742.01624	863.87335	895.97211	-1710.41687	815.49011	890.01184	-1739.8396	844.90894	830.03796	-1743.26868	765.96777	1471.42139	-1278.56018	735.97797	1282.73877	-1194.96704	743.70642	1139.42639	-1173.56384	761.44745	1024.30615	-1141.95508	804.0813	893.58344	-1143.03723	753.19263	896.56561	-1118.35547	782.37109	829.82251	-1107.45166	876.30634	962.97974	-1591.47839	917.53729	974.7879	-1343.31323	679.18701	1010.24603	-1488.3916	691.49518	1015.59351	-1372.23975	757.93579	658.01166	-1643.2533	704.27222	474.81155	-1626.52856	554.26282	358.99576	-1611.05383	426.21701	176.85628	-1580.42859	396.78018	179.58351	-1521.3866	496.75912	35.38679	-1589.93176	905.34393	672.00977	-1263.71631	933.57678	464.71878	-1309.70996	909.18835	276.80014	-1304.5437	901.3808	85.05824	-1341.38062	869.55853	32.64317	-1398.74426	1053.62903	35.31238	-1326.31055	766.31805	1784.29944	-1402.83191	-2845.177	1034.0509	3360.17749
229	2.28	890.9162	1728.69421	-1478.88965	861.21021	1689.79932	-1342.85999	763.28326	1661.7926	-1523.96655	723.36804	1623.0094	-1390.58105	694.67944	1507.67859	-1462.48608	657.80804	1226.37402	-1444.70117	835.82996	1445.11389	-1475.25598	898.19617	1277.46167	-1470.14063	647.76898	1327.40564	-1396.22998	766.40735	1486.47302	-1644.47705	763.73553	1282.69495	-1723.46545	765.8689	1140.86804	-1730.8313	792.69055	1010.54712	-1739.20422	869.25562	896.59174	-1707.98694	820.65985	890.78967	-1737.05237	849.42175	830.62781	-1740.33618	774.85071	1473.11194	-1277.19006	744.99646	1284.62952	-1193.20642	753.74896	1141.12891	-1171.30591	773.61749	1026.40735	-1139.24426	817.52411	896.12628	-1140.42017	766.80841	898.55914	-1115.3822	796.93042	832.37195	-1104.41052	883.75446	964.18243	-1589.24426	925.55054	975.0296	-1341.91968	687.08478	1011.59741	-1485.70068	700.61597	1017.47186	-1369.63843	771.04218	656.99316	-1642.53699	721.9032	474.00839	-1627.28662	571.25696	360.61145	-1612.03552	439.28036	182.40256	-1579.4425	410.48392	185.71901	-1520.35828	507.07062	39.86506	-1591.49768	910.76575	672.15851	-1262.448	936.50238	464.69882	-1308.41309	910.8689	276.89761	-1303.51196	901.53949	85.13409	-1341.12024	869.43475	32.58408	-1398.61267	1053.54346	35.51982	-1326.34058	773.81403	1785.745	-1401.55872	-2845.83716	1034.26819	3357.41235
230	2.29	898.42102	1730.0531	-1477.49561	868.83179	1691.38123	-1341.56152	771.05835	1663.052	-1522.80518	731.08405	1624.27917	-1389.38464	702.63232	1508.76294	-1460.7821	666.19214	1227.61719	-1442.20801	843.97003	1446.55176	-1474.13721	906.52277	1278.93298	-1469.08972	656.76892	1328.52222	-1394.2384	773.77728	1487.67126	-1643.00671	770.91058	1283.92078	-1721.94788	772.21539	1141.94922	-1728.67603	798.33435	1011.62775	-1737.10083	874.74609	897.15247	-1705.55017	826.01599	891.58624	-1734.4856	854.29407	831.04175	-1737.32947	783.90302	1474.65027	-1275.81909	754.5387	1286.73853	-1191.24707	763.90698	1143.26941	-1168.0658	785.91669	1028.58923	-1136.14709	831.32343	898.82715	-1137.8269	780.71173	900.7085	-1112.32263	812.24976	835.04016	-1101.31946	890.65326	965.38031	-1587.64722	934.31403	975.61432	-1340.47961	694.86493	1012.8045	-1482.92505	709.46393	1019.2981	-1366.91211	784.13647	656.58459	-1641.97986	739.59161	473.49167	-1628.04468	588.41553	362.33154	-1613.1134	453.3602	187.10127	-1577.7915	425.33456	190.01219	-1518.30334	520.42255	44.71795	-1593.33435	915.59619	672.49628	-1261.18018	938.96497	464.47931	-1307.18958	912.26831	276.54575	-1303.05444	901.70782	85.12996	-1340.78931	869.27118	32.52191	-1398.46851	1053.41577	35.68361	-1326.31714	781.23212	1786.97571	-1400.39246	NaN	NaN	NaN
231	2.3	906.06195	1731.5979	-1476.34216	876.34326	1692.89148	-1340.40308	778.87817	1664.33057	-1521.72864	738.84576	1625.52002	-1388.3208	710.58014	1509.83191	-1459.10999	674.48291	1228.88489	-1439.8092	851.96204	1447.93738	-1473.10645	914.64325	1280.30762	-1468.20398	665.9101	1329.41541	-1391.06433	780.97681	1488.8103	-1641.68982	778.15497	1284.85425	-1720.10608	778.6441	1142.8905	-1726.66382	804.25415	1012.54211	-1734.8457	880.48108	897.77759	-1703.22485	831.68866	892.32574	-1732.0697	859.42517	831.45142	-1734.38525	792.88666	1476.24487	-1274.66711	764.31201	1288.56104	-1189.20178	774.72223	1145.18091	-1165.03772	798.28461	1030.88147	-1133.38086	845.03394	901.51691	-1135.44299	794.86084	902.79242	-1109.47107	827.4953	837.76471	-1098.42773	897.37665	966.63104	-1586.7677	942.69928	976.14197	-1339.57629	702.54132	1013.8692	-1480.04102	717.97943	1021.02911	-1364.25232	797.12366	656.89349	-1641.62524	757.17743	473.59741	-1628.71338	605.34955	364.50443	-1613.47583	468.59702	190.96075	-1575.83252	440.96036	192.5137	-1515.76575	536.36566	49.59093	-1595.35083	920.3222	672.79858	-1259.77393	941.23999	464.36246	-1306.03748	914.06689	276.6254	-1302.0033	901.98578	85.19994	-1340.42212	869.11139	32.47987	-1398.30029	1053.23755	35.69419	-1326.39563	788.67346	1788.36499	-1399.37549	NaN	NaN	NaN
232	2.31	913.71838	1733.15601	-1475.25854	883.94684	1694.34045	-1339.31055	786.6676	1665.58582	-1520.72949	746.57794	1626.66272	-1387.44141	717.53461	1511.33325	-1458.25964	682.58429	1230.21094	-1437.44177	859.89862	1449.24451	-1472.20935	922.64032	1281.55542	-1467.58179	673.41034	1331.2196	-1389.5531	788.03436	1489.94238	-1640.4834	784.86328	1286.06689	-1718.76038	785.18951	1143.82422	-1724.96021	810.52777	1013.24725	-1732.65723	886.23798	898.40112	-1700.97424	837.46375	893.11206	-1729.89026	864.81494	831.90961	-1731.61694	802.21283	1477.64404	-1273.37219	774.48425	1290.52466	-1187.0675	785.47656	1147.04236	-1162.14941	810.58069	1032.92383	-1130.52148	859.20862	904.42841	-1133.22864	809.17712	904.84741	-1106.71338	842.89392	840.47272	-1095.74829	903.86273	967.86176	-1586.33008	950.65051	976.31964	-1338.88879	710.08246	1014.83899	-1477.09485	726.12927	1022.63287	-1361.57776	809.8009	657.7572	-1641.33435	774.50629	474.15588	-1629.20203	622.42554	366.76782	-1612.68762	484.98853	193.54218	-1573.96667	457.45789	193.76379	-1513.60303	554.3963	53.82943	-1597.67236	924.87994	673.29877	-1258.55457	943.03772	464.14658	-1304.97742	915.54688	276.43832	-1301.42261	902.03455	85.14626	-1340.1322	868.98199	32.44367	-1398.20959	1052.96069	35.73576	-1326.17114	796.10944	1789.70068	-1398.42346	-2846.00635	1033.9823	3356.81616
233	2.32	921.39929	1734.60168	-1474.27002	891.51477	1695.84949	-1338.36719	794.48419	1666.83386	-1519.92932	754.33398	1627.92493	-1386.5968	726.57581	1512.28503	-1456.01294	690.56409	1231.58069	-1435.20276	867.7644	1450.54395	-1471.3949	930.44116	1282.64539	-1467.13025	682.75348	1332.3551	-1386.33826	794.97504	1490.99426	-1639.328	791.55835	1287.00012	-1717.4032	791.75012	1144.73364	-1723.43884	816.71051	1014.24866	-1731.30212	892.21814	899.03278	-1698.82544	843.48456	893.84961	-1727.94727	870.43719	832.29657	-1728.94885	811.56195	1479.13025	-1272.24622	784.70331	1292.5791	-1184.94373	795.84253	1148.86304	-1159.30835	822.64502	1034.95081	-1128.08167	873.43555	907.35712	-1131.03442	823.72284	907.0141	-1104.06433	859.00452	843.66412	-1093.13928	910.53033	969.32416	-1586.47046	958.65582	976.7807	-1338.27905	717.50366	1015.76929	-1474.17163	734.0238	1024.15454	-1358.92505	822.33478	658.96881	-1641.12122	791.52734	475.24069	-1629.55176	639.62543	368.56546	-1611.10083	502.39301	195.03337	-1572.49451	475.00079	193.83443	-1511.70947	574.01917	57.45327	-1600.14258	929.16876	673.66718	-1257.33044	944.7984	463.9505	-1303.90051	916.69336	276.32596	-1300.88306	902.11731	85.12569	-1339.98462	868.95703	32.42803	-1398.21375	1052.8385	35.82678	-1326.11865	803.61017	1791.00793	-1397.65649	-2846.00977	1033.90967	3356.9248
234	2.33	929.05988	1736.07373	-1473.44788	899.16992	1697.32764	-1337.57141	802.35297	1668.04285	-1519.18286	762.06531	1629.25085	-1385.86462	734.51978	1513.63586	-1454.5083	698.35052	1233.04443	-1433.05444	875.6225	1451.77356	-1470.65784	938.12439	1283.69543	-1466.74316	690.53284	1334.15405	-1384.46765	801.74872	1491.95056	-1638.25964	798.07538	1287.98962	-1716.22144	798.30194	1145.63013	-1722.07349	823.04877	1015.10315	-1729.53601	898.23407	899.76111	-1696.71716	849.71606	894.66107	-1726.09973	876.33276	832.83289	-1726.51318	820.9635	1480.63647	-1271.25867	793.66016	1294.3385	-1183.30029	806.73492	1150.89111	-1156.00244	835.19794	1037.10425	-1125.45715	887.73315	910.45795	-1129.10388	838.35883	909.06854	-1101.61975	875.13983	846.7262	-1090.63269	916.67438	970.55542	-1586.36963	966.34198	977.2406	-1337.69641	724.73834	1016.75757	-1471.26245	741.61359	1025.59717	-1356.38074	834.76764	660.60583	-1640.86584	808.18347	476.45853	-1629.74695	657.08759	369.69095	-1609.55847	520.72253	195.12898	-1570.90942	493.18732	192.29729	-1510.00562	595.0144	60.49346	-1602.51599	933.54224	673.7489	-1256.38477	946.67755	463.96948	-1302.92969	917.37506	276.32211	-1300.40881	902.09985	85.10972	-1339.95068	868.91241	32.34861	-1398.37622	1052.87817	35.98276	-1326.06885	811.12115	1792.39063	-1396.97424	-2845.14331	1034.00183	3360.38745
